<svg width="32" height="32" viewBox="0 0 32 32" fill="none" xmlns="http://www.w3.org/2000/svg">
<path fill-rule="evenodd" clip-rule="evenodd" d="M6 5H26C27.6569 5 29 6.34315 29 8V24C29 25.6569 27.6569 27 26 27H6C4.34315 27 3 25.6569 3 24V8C3 6.34315 4.34315 5 6 5ZM26 7H6C5.44772 7 5 7.44772 5 8V24C5 24.5523 5.44772 25 6 25H26C26.5523 25 27 24.5523 27 24V8C27 7.44772 26.5523 7 26 7Z" fill="#464646"/>
<path d="M8 23C7.44772 23 7 22.5523 7 22C7 21.4872 7.38604 21.0645 7.88338 21.0067L8 21H16C16.5523 21 17 21.4477 17 22C17 22.5128 16.614 22.9355 16.1166 22.9933L16 23H8Z" fill="#464646"/>
<path d="M28 11H4C3.44772 11 3 11.4477 3 12V14C3 14.5523 3.44772 15 4 15H28C28.5523 15 29 14.5523 29 14V12C29 11.4477 28.5523 11 28 11Z" fill="#464646"/>
</svg>
