<?xml version="1.0" encoding="iso-8859-1"?>
<!-- Uploaded to: SVG Repo, www.svgrepo.com, Generator: SVG Repo Mixer Tools -->
<svg fill="#000000" height="800px" width="800px" version="1.1" id="Layer_1" xmlns="http://www.w3.org/2000/svg" xmlns:xlink="http://www.w3.org/1999/xlink" 
	 viewBox="0 0 512 512" xml:space="preserve">
<g>
	<g>
		<path d="M256,192c-35.29,0-64,28.71-64,64s28.71,64,64,64s64-28.71,64-64C320,220.71,291.29,192,256,192z M256,282.667
			c-14.727,0-26.667-11.939-26.667-26.667s11.939-26.667,26.667-26.667s26.667,11.939,26.667,26.667S270.727,282.667,256,282.667z"
			/>
	</g>
</g>
<g>
	<g>
		<path d="M508.806,246.409C471.641,196.787,369.67,96.538,256,96.538c-105.586,0-207.008,88.723-252.806,149.871
			c-4.258,5.685-4.258,13.498,0,19.183C40.359,315.213,142.33,415.462,256,415.462c105.586,0,207.008-88.723,252.806-149.871
			C513.065,259.906,513.065,252.094,508.806,246.409z M256,352c-52.934,0-96-43.066-96-96c0-52.934,43.066-96,96-96
			c52.934,0,96,43.066,96,96C352,308.934,308.934,352,256,352z"/>
	</g>
</g>
</svg>