<svg width="24" height="28" viewBox="0 0 24 28" fill="none" xmlns="http://www.w3.org/2000/svg">
<path d="M20.25 5.60041H18V4.74788C17.9994 4.06979 17.7621 3.41967 17.3403 2.94018C16.9185 2.4607 16.3465 2.19101 15.75 2.19031H8.25C7.65345 2.19101 7.08152 2.4607 6.65969 2.94018C6.23787 3.41967 6.00062 4.06979 6 4.74788V5.60041H3.75C2.95462 5.60139 2.19206 5.96099 1.62964 6.60029C1.06722 7.23959 0.750869 8.10639 0.75 9.0105V22.6509C0.75 23.5553 1.06607 24.4227 1.62868 25.0622C2.19129 25.7017 2.95435 26.061 3.75 26.061H20.25C21.0456 26.061 21.8087 25.7017 22.3713 25.0622C22.9339 24.4227 23.25 23.5553 23.25 22.6509V9.0105C23.2491 8.10639 22.9328 7.23959 22.3704 6.60029C21.8079 5.96099 21.0454 5.60139 20.25 5.60041ZM15.75 16.6832H12.75V20.0933C12.75 20.3194 12.671 20.5363 12.5303 20.6961C12.3897 20.856 12.1989 20.9458 12 20.9458C11.8011 20.9458 11.6103 20.856 11.4697 20.6961C11.329 20.5363 11.25 20.3194 11.25 20.0933V16.6832H8.25C8.05109 16.6832 7.86032 16.5934 7.71967 16.4335C7.57902 16.2736 7.5 16.0568 7.5 15.8307C7.5 15.6046 7.57902 15.3878 7.71967 15.2279C7.86032 15.068 8.05109 14.9782 8.25 14.9782H11.25V11.5681C11.25 11.342 11.329 11.1251 11.4697 10.9653C11.6103 10.8054 11.8011 10.7156 12 10.7156C12.1989 10.7156 12.3897 10.8054 12.5303 10.9653C12.671 11.1251 12.75 11.342 12.75 11.5681V14.9782H15.75C15.9489 14.9782 16.1397 15.068 16.2803 15.2279C16.421 15.3878 16.5 15.6046 16.5 15.8307C16.5 16.0568 16.421 16.2736 16.2803 16.4335C16.1397 16.5934 15.9489 16.6832 15.75 16.6832ZM16.5 5.60041H7.5V4.74788C7.5 4.52178 7.57902 4.30493 7.71967 4.14506C7.86032 3.98518 8.05109 3.89536 8.25 3.89536H15.75C15.9489 3.89536 16.1397 3.98518 16.2803 4.14506C16.421 4.30493 16.5 4.52178 16.5 4.74788V5.60041Z" fill="#FF3F3F"/>
</svg>
