<svg width="98" height="98" viewBox="0 0 98 98" fill="none" xmlns="http://www.w3.org/2000/svg">
<path d="M41.3463 6.49982C46.2469 4.46994 51.7531 4.46994 56.6537 6.49982L73.6402 13.5359C78.5408 15.5658 82.4342 19.4592 84.4641 24.3598L91.5002 41.3463C93.5301 46.2469 93.5301 51.7531 91.5002 56.6537L84.4641 73.6402C82.4342 78.5408 78.5408 82.4342 73.6402 84.4641L56.6537 91.5002C51.7531 93.5301 46.2469 93.5301 41.3463 91.5002L24.3598 84.4641C19.4592 82.4342 15.5658 78.5408 13.5359 73.6402L6.49982 56.6537C4.46994 51.7531 4.46994 46.2469 6.49982 41.3463L13.5359 24.3598C15.5658 19.4592 19.4592 15.5658 24.3598 13.5359L41.3463 6.49982Z" fill="#FFAE58" stroke="#105D38" stroke-width="8"/>
</svg>
