<svg width="64" height="64" viewBox="0 0 64 64" fill="none" xmlns="http://www.w3.org/2000/svg">
<path fill-rule="evenodd" clip-rule="evenodd" d="M43.8801 19.8801C44.4399 19.3252 45.1956 19.0129 45.9838 19.0108C46.7721 19.0086 47.5295 19.3167 48.0923 19.8685C48.6552 20.4203 48.9782 21.1715 48.9917 21.9596C49.0051 22.7477 48.7078 23.5095 48.1641 24.0801L32.1961 44.0401C31.9217 44.3357 31.5905 44.573 31.2222 44.7376C30.854 44.9023 30.4564 44.991 30.0531 44.9984C29.6498 45.0059 29.2492 44.932 28.8751 44.7811C28.5011 44.6302 28.1613 44.4054 27.8761 44.1201L17.2961 33.5361C17.0014 33.2615 16.765 32.9303 16.601 32.5623C16.437 32.1943 16.3489 31.797 16.3417 31.3942C16.3346 30.9914 16.4087 30.5913 16.5596 30.2178C16.7105 29.8442 16.9351 29.5049 17.22 29.22C17.5048 28.9351 17.8442 28.7105 18.2177 28.5597C18.5913 28.4088 18.9914 28.3347 19.3942 28.3418C19.797 28.3489 20.1943 28.4371 20.5623 28.601C20.9303 28.765 21.2615 29.0014 21.5361 29.2961L29.9121 37.6681L43.8041 19.9681C43.8289 19.9372 43.8556 19.9078 43.8841 19.8801H43.8801Z" fill="white"/>
</svg>
