<svg width="22" height="26" viewBox="0 0 22 26" fill="none" xmlns="http://www.w3.org/2000/svg">
<path d="M11.2948 9.54238C10.6793 9.47328 10.06 9.62213 9.52176 9.96855C8.98353 10.315 8.55266 10.842 8.28813 11.4776C8.02361 12.1131 7.93836 12.826 8.04406 13.5187C8.14976 14.2115 8.44125 14.8501 8.87861 15.3473C9.31597 15.8444 9.87782 16.1758 10.4872 16.2959C11.0967 16.4161 11.7239 16.3192 12.283 16.0185C12.8421 15.7178 13.3057 15.228 13.6105 14.6162C13.9152 14.0044 14.0462 13.3005 13.9854 12.6008C13.9161 11.8165 13.6104 11.0835 13.12 10.5261C12.6296 9.9687 11.9848 9.62116 11.2948 9.54238V9.54238ZM18.5182 12.936C18.5163 13.3066 18.4923 13.6767 18.4465 14.0437L20.5657 15.9331C20.658 16.0201 20.7202 16.1414 20.7412 16.2755C20.7622 16.4097 20.7407 16.5479 20.6806 16.6658L18.6757 20.6087C18.6148 20.7254 18.5197 20.8139 18.407 20.8586C18.2943 20.9034 18.1713 20.9015 18.0598 20.8533L15.9551 19.8899C15.839 19.8374 15.7133 19.8184 15.5892 19.8347C15.4651 19.8509 15.3465 19.902 15.244 19.9831C14.9228 20.2346 14.5853 20.4579 14.2343 20.6513C14.124 20.7123 14.0285 20.8032 13.9564 20.916C13.8843 21.0288 13.8378 21.1601 13.8209 21.2982L13.5054 23.8499C13.4847 23.9846 13.4234 24.107 13.3321 24.1962C13.2408 24.2853 13.1251 24.3356 13.0048 24.3385H8.99509C8.87675 24.3362 8.76264 24.2881 8.67155 24.2022C8.58047 24.1163 8.51784 23.9976 8.494 23.8659L8.179 21.3179C8.16131 21.1782 8.11354 21.0457 8.03994 20.9321C7.96634 20.8186 7.86919 20.7274 7.75712 20.6668C7.4066 20.4744 7.07021 20.2505 6.75119 19.997C6.64904 19.9162 6.53082 19.8656 6.40718 19.8497C6.28353 19.8338 6.15835 19.8531 6.0429 19.9059L3.93868 20.8687C3.82717 20.917 3.70425 20.919 3.59158 20.8743C3.4789 20.8297 3.3837 20.7413 3.32275 20.6247L1.3179 16.6817C1.25763 16.5639 1.23609 16.4256 1.25712 16.2915C1.27815 16.1573 1.34039 16.036 1.43275 15.9491L3.22384 14.3506C3.32197 14.2621 3.39909 14.1471 3.4482 14.0161C3.49732 13.8851 3.51687 13.7422 3.50509 13.6004C3.48822 13.3782 3.4779 13.1566 3.4779 12.9344C3.4779 12.7122 3.48775 12.4937 3.50509 12.2763C3.51558 12.1354 3.49507 11.9937 3.4454 11.8641C3.39573 11.7344 3.31846 11.6208 3.22056 11.5336L1.4304 9.93508C1.33954 9.84774 1.27862 9.72685 1.2583 9.59358C1.23799 9.4603 1.25959 9.32316 1.31931 9.20617L3.32415 5.26324C3.38504 5.14655 3.48021 5.05803 3.59289 5.01329C3.70557 4.96854 3.82853 4.97045 3.94009 5.01867L6.04478 5.98203C6.16084 6.03456 6.28656 6.05353 6.41066 6.03726C6.53477 6.02099 6.65338 5.96997 6.75587 5.88878C7.07708 5.63735 7.41462 5.41399 7.76556 5.22062C7.87589 5.15966 7.97133 5.06876 8.04343 4.95595C8.11553 4.84314 8.16209 4.71188 8.179 4.57376L8.49447 2.02205C8.51519 1.88729 8.57644 1.76489 8.66775 1.67577C8.75906 1.58665 8.87477 1.53634 8.99509 1.53345H13.0048C13.1231 1.53577 13.2372 1.58385 13.3283 1.66976C13.4194 1.75567 13.482 1.87429 13.5059 2.00607L13.8209 4.55405C13.8386 4.69368 13.8863 4.82619 13.9599 4.93978C14.0335 5.05338 14.1307 5.14454 14.2427 5.20516C14.5933 5.39749 14.9297 5.62146 15.2487 5.87493C15.3508 5.95571 15.4691 6.00634 15.5927 6.02224C15.7163 6.03815 15.8415 6.01884 15.957 5.96604L18.0612 5.00322C18.1727 4.95495 18.2956 4.95297 18.4083 4.99761C18.521 5.04225 18.6162 5.13066 18.6771 5.24726L20.682 9.19018C20.7422 9.30799 20.7638 9.44628 20.7428 9.58044C20.7217 9.71461 20.6595 9.83593 20.5671 9.92282L18.776 11.5213C18.6775 11.6096 18.5999 11.7244 18.5504 11.8555C18.5008 11.9865 18.4809 12.1295 18.4924 12.2715C18.5079 12.4921 18.5182 12.7138 18.5182 12.936Z" stroke="#030319" stroke-width="1.5" stroke-linecap="round" stroke-linejoin="round"/>
</svg>
